<svg xmlns="http://www.w3.org/2000/svg" xmlns:xlink="http://www.w3.org/1999/xlink" preserveAspectRatio="xMidYMid" width="65" height="65" viewBox="0 0 65 65">
  <defs>
    <style>

      .cls-3 {
        fill: #8b71b5;
      }

      .cls-4 {
        fill: #000000;
      }

      .cls-5 {
        fill: #53ecf4;
      }

      .cls-6 {
        fill: #ff917b;
      }
    </style>
  </defs>
  <g id="group-11svg">
    <path d="M65.000,56.972 C65.000,61.389 61.418,64.970 57.000,64.970 C57.000,64.970 14.000,64.970 14.000,64.970 C9.582,64.970 6.000,61.389 6.000,56.972 C6.000,56.972 6.000,12.982 6.000,12.982 C6.000,8.565 9.582,4.984 14.000,4.984 C14.000,4.984 57.000,4.984 57.000,4.984 C61.418,4.984 65.000,8.565 65.000,12.982 C65.000,12.982 65.000,56.972 65.000,56.972 Z" id="path-1" class="cls-3" fill-rule="evenodd"/>
    <path d="M52.500,62.970 C52.500,62.970 9.500,62.970 9.500,62.970 C4.262,62.970 -0.000,58.710 -0.000,53.472 C-0.000,53.472 -0.000,9.483 -0.000,9.483 C-0.000,4.246 4.262,-0.015 9.500,-0.015 C9.500,-0.015 52.500,-0.015 52.500,-0.015 C57.738,-0.015 62.000,4.246 62.000,9.483 C62.000,9.483 62.000,53.472 62.000,53.472 C62.000,58.710 57.738,62.970 52.500,62.970 ZM9.500,2.985 C5.916,2.985 3.000,5.900 3.000,9.483 C3.000,9.483 3.000,53.472 3.000,53.472 C3.000,57.056 5.916,59.971 9.500,59.971 C9.500,59.971 52.500,59.971 52.500,59.971 C56.084,59.971 59.000,57.056 59.000,53.472 C59.000,53.472 59.000,9.483 59.000,9.483 C59.000,5.900 56.084,2.985 52.500,2.985 C52.500,2.985 9.500,2.985 9.500,2.985 Z" id="path-2" class="cls-4" fill-rule="evenodd"/>
    <path d="M27.075,37.848 C27.075,31.948 31.859,27.165 37.761,27.165 C43.662,27.165 48.445,31.948 48.445,37.848 C48.445,37.848 46.241,37.875 46.241,37.875 C44.904,34.503 41.613,32.119 37.765,32.119 C33.957,32.119 30.695,34.452 29.331,37.766 C29.331,37.766 27.075,37.848 27.075,37.848 Z" id="path-3" class="cls-5" fill-rule="evenodd"/>
    <path d="M43.234,19.916 C43.234,22.617 40.481,26.825 37.781,26.825 C35.080,26.825 32.286,22.617 32.286,19.916 C32.286,17.216 35.060,15.027 37.761,15.027 C40.461,15.027 43.234,17.216 43.234,19.916 Z" id="path-4" class="cls-6" fill-rule="evenodd"/>
    <path d="M32.781,25.325 C28.987,25.325 25.786,20.160 25.786,16.917 C25.786,13.513 29.045,10.528 32.761,10.528 C36.477,10.528 39.735,13.513 39.735,16.917 C39.735,20.160 36.553,25.325 32.781,25.325 ZM32.761,13.527 C30.755,13.527 28.786,15.206 28.786,16.917 C28.786,19.090 31.176,22.326 32.781,22.326 C34.370,22.326 36.735,19.090 36.735,16.917 C36.735,15.206 34.767,13.527 32.761,13.527 Z" id="path-5" class="cls-4" fill-rule="evenodd"/>
    <path d="M41.241,35.977 C40.627,35.977 40.073,35.801 39.847,35.229 C38.688,32.308 35.908,30.520 32.765,30.520 C29.664,30.520 26.897,32.422 25.718,35.287 C25.494,35.832 24.973,36.219 24.385,36.241 C24.385,36.241 22.129,36.335 22.129,36.335 C21.727,36.350 21.326,36.203 21.034,35.921 C20.740,35.638 20.575,35.252 20.575,34.845 C20.575,28.128 26.042,22.665 32.761,22.665 C39.479,22.665 44.945,28.130 44.945,34.847 C44.945,35.668 44.285,36.137 43.464,36.148 C43.464,36.148 41.260,35.977 41.260,35.977 C41.254,35.977 41.247,35.977 41.241,35.977 ZM32.761,25.666 C28.559,25.666 25.007,28.501 23.918,32.358 C25.859,29.427 29.148,27.620 32.765,27.620 C36.383,27.620 39.655,29.414 41.595,32.331 C40.497,28.487 36.952,25.666 32.761,25.666 Z" id="path-6" class="cls-4" fill-rule="evenodd"/>
    <path d="M43.000,45.974 C43.000,45.974 22.000,45.974 22.000,45.974 C21.172,45.974 20.500,45.303 20.500,44.475 C20.500,43.647 21.172,42.975 22.000,42.975 C22.000,42.975 43.000,42.975 43.000,42.975 C43.828,42.975 44.500,43.647 44.500,44.475 C44.500,45.303 43.828,45.974 43.000,45.974 Z" id="path-7" class="cls-4" fill-rule="evenodd"/>
    <path d="M43.000,52.973 C43.000,52.973 22.000,52.973 22.000,52.973 C21.172,52.973 20.500,52.301 20.500,51.473 C20.500,50.645 21.172,49.973 22.000,49.973 C22.000,49.973 43.000,49.973 43.000,49.973 C43.828,49.973 44.500,50.645 44.500,51.473 C44.500,52.301 43.828,52.973 43.000,52.973 Z" id="path-8" class="cls-4" fill-rule="evenodd"/>
  </g>
</svg>
