<svg xmlns="http://www.w3.org/2000/svg" xmlns:xlink="http://www.w3.org/1999/xlink" preserveAspectRatio="xMidYMid" width="62" height="64" viewBox="0 0 62 64">
  <defs>
    <style>

      .cls-3 {
        fill: #53ecf4;
      }

      .cls-4 {
        fill: #ff917b;
      }

      .cls-5 {
        fill: #000000;
      }
    </style>
  </defs>
  <g id="group-10svg">
    <path d="M5.506,63.409 C5.506,47.920 18.065,35.363 33.559,35.363 C49.053,35.363 61.612,47.920 61.612,63.409 C61.612,63.409 55.825,63.482 55.825,63.482 C52.314,54.630 43.673,48.370 33.569,48.370 C23.574,48.370 15.011,54.495 11.429,63.195 C11.429,63.195 5.506,63.409 5.506,63.409 Z" id="path-1" class="cls-3" fill-rule="evenodd"/>
    <path d="M47.932,16.332 C47.932,23.421 40.703,34.469 33.612,34.469 C26.521,34.469 19.187,23.421 19.187,16.332 C19.187,9.243 26.468,3.496 33.559,3.496 C40.650,3.496 47.932,9.243 47.932,16.332 Z" id="path-2" class="cls-4" fill-rule="evenodd"/>
    <path d="M29.612,33.969 C21.130,33.969 13.686,21.730 13.686,14.332 C13.686,6.127 22.066,-0.003 29.559,-0.003 C37.052,-0.003 45.432,6.127 45.432,14.332 C45.432,21.730 38.038,33.969 29.612,33.969 ZM29.559,2.996 C23.482,2.996 16.687,7.845 16.687,14.332 C16.687,20.902 23.619,30.970 29.612,30.970 C35.556,30.970 42.432,20.902 42.432,14.332 C42.432,7.845 35.636,2.996 29.559,2.996 Z" id="path-3" class="cls-5" fill-rule="evenodd"/>
    <path d="M51.825,62.939 C51.211,62.939 50.657,62.585 50.431,62.013 C47.018,53.409 38.830,47.859 29.569,47.859 C20.437,47.859 12.291,53.319 8.815,61.761 C8.592,62.305 8.071,62.669 7.483,62.691 C7.483,62.691 1.561,62.907 1.561,62.907 C1.122,62.915 0.758,62.770 0.465,62.489 C0.172,62.206 0.006,61.816 0.006,61.409 C0.006,45.117 13.263,31.864 29.559,31.864 C45.854,31.864 59.112,45.118 59.112,61.410 C59.112,62.231 58.452,62.877 57.631,62.888 C57.631,62.888 51.844,62.939 51.844,62.939 C51.838,62.939 51.831,62.939 51.825,62.939 ZM29.569,44.871 C39.719,44.871 48.733,50.763 52.816,59.970 C52.816,59.970 56.071,59.930 56.071,59.930 C55.301,45.977 43.703,34.863 29.559,34.863 C15.440,34.863 3.860,45.937 3.051,59.854 C3.051,59.854 6.430,59.731 6.430,59.731 C10.564,50.671 19.543,44.871 29.569,44.871 Z" id="path-4" class="cls-5" fill-rule="evenodd"/>
    <path d="M37.818,45.420 C37.343,45.420 36.890,45.193 36.604,44.800 C36.604,44.800 28.589,33.756 28.589,33.756 C28.241,33.278 28.208,32.639 28.503,32.127 C28.798,31.614 29.359,31.325 29.956,31.384 C33.362,31.733 40.536,34.003 40.840,34.100 C41.623,34.349 42.060,35.182 41.820,35.968 C41.820,35.968 39.253,44.358 39.253,44.358 C39.086,44.902 38.627,45.305 38.065,45.399 C37.982,45.413 37.900,45.420 37.818,45.420 ZM33.248,35.068 C33.248,35.068 37.265,40.603 37.265,40.603 C37.265,40.603 38.513,36.523 38.513,36.523 C37.198,36.128 35.162,35.538 33.248,35.068 Z" id="path-5" class="cls-5" fill-rule="evenodd"/>
    <path d="M21.788,45.420 C21.706,45.420 21.624,45.413 21.541,45.399 C20.980,45.305 20.520,44.903 20.353,44.358 C20.353,44.358 17.785,35.968 17.785,35.968 C17.549,35.196 17.966,34.377 18.728,34.113 C19.008,34.015 25.631,31.731 29.674,31.382 C30.256,31.330 30.819,31.626 31.108,32.138 C31.397,32.648 31.361,33.281 31.017,33.756 C31.017,33.756 23.002,44.800 23.002,44.800 C22.717,45.193 22.264,45.420 21.788,45.420 ZM21.084,36.494 C21.084,36.494 22.342,40.603 22.342,40.603 C22.342,40.603 26.414,34.991 26.414,34.991 C24.421,35.460 22.382,36.079 21.084,36.494 Z" id="path-6" class="cls-5" fill-rule="evenodd"/>
  </g>
</svg>
