<svg xmlns="http://www.w3.org/2000/svg" xmlns:xlink="http://www.w3.org/1999/xlink" preserveAspectRatio="xMidYMid" width="65" height="61" viewBox="0 0 65 61">
  <defs>
    <style>

      .cls-3 {
        fill: #8b71b5;
      }

      .cls-4 {
        fill: #edc951;
      }

      .cls-5 {
        fill: #000000;
      }
    </style>
  </defs>
  <g id="group-13svg">
    <path d="M65.000,52.973 C65.000,57.390 61.418,60.971 57.000,60.971 C57.000,60.971 13.000,60.971 13.000,60.971 C8.581,60.971 5.000,57.390 5.000,52.973 C5.000,52.973 5.000,12.982 5.000,12.982 C5.000,8.565 8.581,4.984 13.000,4.984 C13.000,4.984 57.000,4.984 57.000,4.984 C61.418,4.984 65.000,8.565 65.000,12.982 C65.000,12.982 65.000,52.973 65.000,52.973 Z" id="path-1" class="cls-3" fill-rule="evenodd"/>
    <path d="M52.775,35.567 C52.775,44.814 45.277,52.311 36.027,52.311 C26.778,52.311 19.279,44.814 19.279,35.567 C19.279,26.319 26.778,18.823 36.027,18.823 C45.277,18.823 52.775,26.319 52.775,35.567 Z" id="path-2" class="cls-4" fill-rule="evenodd"/>
    <path d="M53.500,58.971 C53.500,58.971 9.500,58.971 9.500,58.971 C4.262,58.971 -0.000,54.710 -0.000,49.473 C-0.000,49.473 -0.000,9.483 -0.000,9.483 C-0.000,4.246 4.262,-0.015 9.500,-0.015 C9.500,-0.015 53.500,-0.015 53.500,-0.015 C58.738,-0.015 63.000,4.246 63.000,9.483 C63.000,9.483 63.000,49.473 63.000,49.473 C63.000,54.710 58.738,58.971 53.500,58.971 ZM9.500,2.985 C5.916,2.985 3.000,5.900 3.000,9.483 C3.000,9.483 3.000,49.473 3.000,49.473 C3.000,53.057 5.916,55.972 9.500,55.972 C9.500,55.972 53.500,55.972 53.500,55.972 C57.084,55.972 60.000,53.057 60.000,49.473 C60.000,49.473 60.000,9.483 60.000,9.483 C60.000,5.900 57.084,2.985 53.500,2.985 C53.500,2.985 9.500,2.985 9.500,2.985 Z" id="path-3" class="cls-5" fill-rule="evenodd"/>
    <path d="M32.027,50.811 C21.965,50.811 13.779,42.626 13.779,32.567 C13.779,22.508 21.965,14.324 32.027,14.324 C42.090,14.324 50.276,22.508 50.276,32.567 C50.276,42.626 42.090,50.811 32.027,50.811 ZM32.027,17.323 C23.620,17.323 16.779,24.161 16.779,32.567 C16.779,40.974 23.620,47.812 32.027,47.812 C40.436,47.812 47.276,40.974 47.276,32.567 C47.276,24.161 40.436,17.323 32.027,17.323 Z" id="path-4" class="cls-5" fill-rule="evenodd"/>
    <path d="M31.500,44.475 C30.671,44.475 30.000,43.803 30.000,42.975 C30.000,42.975 30.000,26.409 30.000,26.409 C30.000,25.839 30.323,25.318 30.834,25.065 C31.344,24.812 31.954,24.869 32.408,25.216 C32.408,25.216 38.510,29.856 38.510,29.856 C39.169,30.357 39.297,31.298 38.795,31.957 C38.294,32.616 37.352,32.744 36.693,32.242 C36.693,32.242 33.000,29.433 33.000,29.433 C33.000,29.433 33.000,42.975 33.000,42.975 C33.000,43.803 32.329,44.475 31.500,44.475 Z" id="path-5" class="cls-5" fill-rule="evenodd"/>
    <path d="M25.763,32.908 C25.329,32.908 24.898,32.721 24.601,32.359 C24.077,31.719 24.170,30.774 24.811,30.249 C24.811,30.249 30.913,25.249 30.913,25.249 C31.554,24.725 32.498,24.818 33.023,25.458 C33.548,26.098 33.455,27.043 32.814,27.569 C32.814,27.569 26.712,32.568 26.712,32.568 C26.434,32.797 26.097,32.908 25.763,32.908 Z" id="path-6" class="cls-5" fill-rule="evenodd"/>
  </g>
</svg>
