<svg xmlns="http://www.w3.org/2000/svg" xmlns:xlink="http://www.w3.org/1999/xlink" preserveAspectRatio="xMidYMid" width="46" height="64" viewBox="0 0 46 64">
  <defs>
    <style>

      .cls-3 {
        fill: #53ecf4;
      }

      .cls-4 {
        fill: #000000;
      }
    </style>
  </defs>
  <g id="group-121svg">
    <path d="M45.565,17.979 C43.211,9.615 35.525,3.483 26.408,3.483 C15.418,3.483 6.509,12.393 6.509,23.383 C6.509,25.712 7.913,28.921 8.648,30.998 C8.648,30.998 24.265,62.177 24.265,62.177 C25.137,63.918 27.622,63.920 28.496,62.180 C28.496,62.180 44.168,30.998 44.168,30.998 C44.168,30.998 44.168,30.998 44.168,30.998 " id="path-1" class="cls-3" fill-rule="evenodd"/>
    <path d="M21.382,63.156 C21.381,63.156 21.380,63.156 21.379,63.156 C19.907,63.156 18.583,62.252 17.924,60.935 C17.924,60.935 2.308,29.713 2.308,29.713 C2.279,29.657 2.255,29.579 2.234,29.520 C2.101,29.144 1.945,28.720 1.780,28.280 C0.991,26.179 0.009,23.560 0.009,21.389 C0.009,9.589 9.608,-0.014 21.408,-0.014 C30.954,-0.014 39.426,6.395 42.010,15.574 C42.233,16.371 41.769,17.200 40.972,17.425 C40.176,17.650 39.346,17.184 39.121,16.386 C36.900,8.495 29.616,2.983 21.408,2.983 C11.263,2.983 3.009,11.237 3.009,21.383 C3.009,23.009 3.885,25.341 4.589,27.214 C4.748,27.639 4.899,28.040 5.031,28.408 C5.031,28.408 20.605,59.505 20.605,59.505 C20.822,59.936 21.220,59.983 21.381,59.983 C21.381,59.983 21.381,59.983 21.382,59.983 C21.543,59.983 21.939,59.937 22.155,59.507 C22.155,59.507 37.828,28.324 37.828,28.324 C38.199,27.585 39.099,27.283 39.842,27.658 C40.582,28.030 40.880,28.932 40.508,29.672 C40.508,29.672 24.836,60.939 24.836,60.939 C24.177,62.254 22.852,63.156 21.382,63.156 Z" id="path-2" class="cls-4" fill-rule="evenodd"/>
  </g>
</svg>
