<?xml version="1.0" encoding="UTF-8" standalone="no"?> <svg enable-background="new 0 0 32 32" height="512" viewBox="0 0 32 32" width="512" xmlns="http://www.w3.org/2000/svg"><g id="BG"><path d="m26 32h-20c-3.314 0-6-2.686-6-6v-20c0-3.314 2.686-6 6-6h20c3.314 0 6 2.686 6 6v20c0 3.314-2.686 6-6 6z" fill="#f5e6fe"/></g><g id="bold"><path d="m22.167 14h-3.5v1.25h3.333c.368 0 .667.28.667.625v.312c0 .345-.298.625-.667.625-.368 0-.667.28-.667.625v3.125c0 .345.298.625.667.625.368 0 .667.28.667.625v.313c0 .345-.298.625-.667.625h-3.406c-.113.489-.361.92-.704 1.25h4.276c1.012 0 1.834-.771 1.834-1.719v-.781-5-.781c0-.948-.822-1.719-1.833-1.719z" fill="#d9a4fc"/><path d="m16.281 8h-.781-5-.781c-.948 0-1.719.822-1.719 1.833v12.333c0 1.012.771 1.834 1.719 1.834h6.563c.947 0 1.718-.822 1.718-1.833v-12.334c0-1.011-.771-1.833-1.719-1.833zm.469 14c0 .368-.28.667-.625.667h-6.25c-.345 0-.625-.299-.625-.667v-12c0-.368.28-.667.625-.667h.313c.345 0 .625.298.625.667 0 .368.28.667.625.667h3.125c.345 0 .625-.298.625-.667 0-.368.28-.667.625-.667h.313c.345 0 .625.298.625.667v12z" fill="#be63f9"/><path d="m23.606 10.721c-.109-.236-.345-.388-.605-.388h-.496c-.374-1.185-1.392-2-2.671-2-.368 0-.667.299-.667.667s.298.667.667.667c.563 0 .966.278 1.214.667h-.048c-.26 0-.497.152-.605.388-.109.237-.07.515.1.713l1 1.167c.005.006.013.008.019.014.045.049.099.085.157.119.021.013.038.031.061.041.083.037.173.059.269.059s.187-.022.269-.059c.023-.01.04-.029.061-.041.058-.034.112-.07.157-.119.005-.006.013-.008.019-.014l1-1.167c.169-.199.207-.477.099-.714z" fill="#d9a4fc"/></g></svg>