<?xml version="1.0" encoding="iso-8859-1"?>
<!-- Generator: Adobe Illustrator 19.0.0, SVG Export Plug-In . SVG Version: 6.00 Build 0)  -->
<svg version="1.1" id="Layer_1" xmlns="http://www.w3.org/2000/svg" xmlns:xlink="http://www.w3.org/1999/xlink" x="0px" y="0px"
	 viewBox="0 0 512 512" style="enable-background:new 0 0 512 512;" xml:space="preserve">
<g transform="translate(1 1)">
	<g>
		<path style="fill:#E2E3E5;" d="M277.187,502.467H178.2c-16.213,0-29.013-12.8-29.013-29.013V36.547
			c0-16.213,12.8-29.013,29.013-29.013h98.987c16.213,0,29.013,12.8,29.013,29.013v436.907
			C306.2,489.667,293.4,502.467,277.187,502.467"/>
		<path style="fill:#E2E3E5;" d="M451.267,144.067c-5.12,0-8.533-3.413-8.533-8.533c0-52.053-41.813-93.867-93.867-93.867
			c-5.12,0-8.533-3.413-8.533-8.533s3.413-8.533,8.533-8.533c61.44,0,110.933,49.493,110.933,110.933
			C459.8,140.653,456.387,144.067,451.267,144.067z"/>
		<path style="fill:#E2E3E5;" d="M451.267,186.733c-2.56,0-4.267-0.853-5.973-2.56l-51.2-51.2c-3.413-3.413-3.413-8.533,0-11.947
			c3.413-3.413,8.533-3.413,11.947,0l51.2,51.2c3.413,3.413,3.413,8.533,0,11.947C455.533,185.88,453.827,186.733,451.267,186.733z"
			/>
		<path style="fill:#E2E3E5;" d="M451.267,186.733c-2.56,0-4.267-0.853-5.973-2.56c-3.413-3.413-3.413-8.533,0-11.947l51.2-51.2
			c3.413-3.413,8.533-3.413,11.947,0s3.413,8.533,0,11.947l-51.2,51.2C455.533,185.88,453.827,186.733,451.267,186.733z"/>
		<path style="fill:#E2E3E5;" d="M451.267,186.733c-5.12,0-8.533-3.413-8.533-8.533v-42.667c0-5.12,3.413-8.533,8.533-8.533
			s8.533,3.413,8.533,8.533V178.2C459.8,183.32,456.387,186.733,451.267,186.733z"/>
	</g>
	<path style="fill:#CCCCCC;" d="M260.12,502.467h-98.987c-16.213,0-29.013-12.8-29.013-29.013V36.547
		c0-16.213,12.8-29.013,29.013-29.013h98.987c16.213,0,29.013,12.8,29.013,29.013v436.907
		C289.133,489.667,276.333,502.467,260.12,502.467"/>
	<path style="fill:#FFFFFF;" d="M135.533,502.467H36.547c-16.213,0-29.013-12.8-29.013-29.013V36.547
		c0-16.213,12.8-29.013,29.013-29.013h98.987c16.213,0,29.013,12.8,29.013,29.013v436.907
		C164.547,489.667,151.747,502.467,135.533,502.467"/>
	<path style="fill:#E2E3E5;" d="M225.987,502.467H62.147c-16.213,0-29.013-12.8-29.013-29.013V36.547
		c0-16.213,12.8-29.013,29.013-29.013h163.84C242.2,7.533,255,20.333,255,36.547v436.907C255,489.667,242.2,502.467,225.987,502.467
		"/>
	<path style="fill:#F0F0F0;" d="M169.667,451.267c0,14.507-11.093,25.6-25.6,25.6c-14.507,0-25.6-11.093-25.6-25.6
		s11.093-25.6,25.6-25.6S169.667,436.76,169.667,451.267"/>
	<g>
		<path style="fill:#B6B6B6;" d="M251.587,511H36.547C16.067,511-1,493.933-1,473.453V36.547C-1,16.067,16.067-1,36.547-1h215.04
			c20.48,0,37.547,17.067,37.547,37.547v436.907C289.133,493.933,272.067,511,251.587,511z M36.547,16.067
			c-11.093,0-20.48,9.387-20.48,20.48v436.907c0,11.093,9.387,20.48,20.48,20.48h215.04c11.093,0,20.48-9.387,20.48-20.48V36.547
			c0-11.093-9.387-20.48-20.48-20.48H36.547z"/>
		<path style="fill:#B6B6B6;" d="M144.067,485.4c-18.773,0-34.133-15.36-34.133-34.133s15.36-34.133,34.133-34.133
			s34.133,15.36,34.133,34.133S162.84,485.4,144.067,485.4z M144.067,434.2c-9.387,0-17.067,7.68-17.067,17.067
			s7.68,17.067,17.067,17.067c9.387,0,17.067-7.68,17.067-17.067S153.453,434.2,144.067,434.2z"/>
		<path style="fill:#B6B6B6;" d="M280.6,408.6H7.533c-5.12,0-8.533-3.413-8.533-8.533c0-5.12,3.413-8.533,8.533-8.533H280.6
			c5.12,0,8.533,3.413,8.533,8.533C289.133,405.187,285.72,408.6,280.6,408.6z"/>
		<path style="fill:#B6B6B6;" d="M280.6,67.267H7.533C2.413,67.267-1,63.853-1,58.733S2.413,50.2,7.533,50.2H280.6
			c5.12,0,8.533,3.413,8.533,8.533S285.72,67.267,280.6,67.267z"/>
		<path style="fill:#B6B6B6;" d="M144.067,41.667h-34.133c-5.12,0-8.533-3.413-8.533-8.533s3.413-8.533,8.533-8.533h34.133
			c5.12,0,8.533,3.413,8.533,8.533S149.187,41.667,144.067,41.667z"/>
		<path style="fill:#B6B6B6;" d="M178.2,41.667h-8.533c-5.12,0-8.533-3.413-8.533-8.533s3.413-8.533,8.533-8.533h8.533
			c5.12,0,8.533,3.413,8.533,8.533S183.32,41.667,178.2,41.667z"/>
		<path style="fill:#B6B6B6;" d="M451.267,493.933c-5.12,0-8.533-3.413-8.533-8.533V263.533c0-5.12,3.413-8.533,8.533-8.533
			s8.533,3.413,8.533,8.533V485.4C459.8,490.52,456.387,493.933,451.267,493.933z"/>
		<path style="fill:#B6B6B6;" d="M473.453,511H251.587c-5.12,0-8.533-3.413-8.533-8.533s3.413-8.533,8.533-8.533
			c11.093,0,20.48-9.387,20.48-20.48v-235.52c0-5.12,3.413-8.533,8.533-8.533h192.853c20.48,0,37.547,17.067,37.547,37.547v206.507
			C511,493.933,493.933,511,473.453,511z M283.16,493.933h190.293c11.093,0,20.48-9.387,20.48-20.48V266.947
			c0-11.093-9.387-20.48-20.48-20.48h-184.32v226.987C289.133,481.133,286.573,487.96,283.16,493.933z"/>
		<path style="fill:#B6B6B6;" d="M442.733,135.533c-5.12,0-8.533-3.413-8.533-8.533c0-52.053-41.813-93.867-93.867-93.867
			c-5.12,0-8.533-3.413-8.533-8.533s3.413-8.533,8.533-8.533c61.44,0,110.933,49.493,110.933,110.933
			C451.267,132.12,447.853,135.533,442.733,135.533z"/>
		<path style="fill:#B6B6B6;" d="M442.733,178.2c-2.56,0-4.267-0.853-5.973-2.56l-51.2-51.2c-3.413-3.413-3.413-8.533,0-11.947
			c3.413-3.413,8.533-3.413,11.947,0l51.2,51.2c3.413,3.413,3.413,8.533,0,11.947C447,177.347,445.293,178.2,442.733,178.2z"/>
		<path style="fill:#B6B6B6;" d="M442.733,178.2c-2.56,0-4.267-0.853-5.973-2.56c-3.413-3.413-3.413-8.533,0-11.947l51.2-51.2
			c3.413-3.413,8.533-3.413,11.947,0c3.413,3.413,3.413,8.533,0,11.947l-51.2,51.2C447,177.347,445.293,178.2,442.733,178.2z"/>
		<path style="fill:#B6B6B6;" d="M442.733,178.2c-5.12,0-8.533-3.413-8.533-8.533V127c0-5.12,3.413-8.533,8.533-8.533
			c5.12,0,8.533,3.413,8.533,8.533v42.667C451.267,174.787,447.853,178.2,442.733,178.2z"/>
	</g>
</g>
<g>
</g>
<g>
</g>
<g>
</g>
<g>
</g>
<g>
</g>
<g>
</g>
<g>
</g>
<g>
</g>
<g>
</g>
<g>
</g>
<g>
</g>
<g>
</g>
<g>
</g>
<g>
</g>
<g>
</g>
</svg>
