<svg xmlns="http://www.w3.org/2000/svg" xmlns:xlink="http://www.w3.org/1999/xlink" preserveAspectRatio="xMidYMid" width="63" height="44" viewBox="0 0 63 44">
  <defs>
    <style>

      .cls-3 {
        fill: #53ecf4;
      }

      .cls-5 {
        fill: #ff917b;
      }

      .cls-7 {
        fill: #000000;
      }
    </style>
  </defs>
  <g id="group-12svg">
    <path d="M39.218,36.600 C39.218,36.600 39.201,35.999 39.201,35.999 C39.201,34.834 40.130,33.288 41.295,33.288 C41.295,33.288 47.421,33.288 47.421,33.288 C48.521,33.288 49.250,34.299 49.250,35.399 C49.250,35.399 49.250,42.397 49.250,42.397 C49.250,43.501 48.526,44.285 47.421,44.285 C47.421,44.285 41.421,44.285 41.421,44.285 C40.316,44.285 39.250,43.501 39.250,42.397 C39.250,42.397 39.250,42.286 39.250,42.286 C39.250,42.286 39.250,42.286 39.250,42.286 " id="path-1" class="cls-3" fill-rule="evenodd"/>
    <path d="M34.607,36.600 C34.607,36.600 34.786,35.999 34.786,35.999 C34.786,34.834 34.020,33.288 32.855,33.288 C32.855,33.288 25.421,33.288 25.421,33.288 C24.321,33.288 23.250,34.299 23.250,35.399 C23.250,35.399 23.250,42.397 23.250,42.397 C23.250,43.501 24.316,44.285 25.421,44.285 C25.421,44.285 32.421,44.285 32.421,44.285 C33.526,44.285 34.250,43.501 34.250,42.397 C34.250,42.397 34.250,42.286 34.250,42.286 C34.250,42.286 34.250,42.286 34.250,42.286 " id="path-2" class="cls-3" fill-rule="evenodd"/>
    <path d="M60.289,10.346 C60.289,13.571 57.000,18.597 53.774,18.597 C50.548,18.597 47.211,13.571 47.211,10.346 C47.211,7.120 50.523,4.506 53.750,4.506 C56.976,4.506 60.289,7.120 60.289,10.346 Z" id="path-3" class="cls-5" fill-rule="evenodd"/>
    <path d="M25.815,10.346 C25.815,13.571 22.526,18.597 19.300,18.597 C16.074,18.597 12.737,13.571 12.737,10.346 C12.737,7.120 16.050,4.506 19.276,4.506 C22.502,4.506 25.815,7.120 25.815,10.346 Z" id="path-4" class="cls-5" fill-rule="evenodd"/>
    <path d="M42.421,43.285 C42.421,43.285 36.421,43.285 36.421,43.285 C34.361,43.285 33.250,41.282 33.250,39.398 C33.250,39.398 33.250,39.286 33.250,39.286 C33.250,38.458 33.921,37.787 34.750,37.787 C35.579,37.787 36.250,38.458 36.250,39.286 C36.250,39.286 36.250,39.398 36.250,39.398 C36.250,39.813 36.393,40.163 36.492,40.286 C36.492,40.286 42.421,40.286 42.421,40.286 C42.705,40.269 43.249,39.688 43.250,39.398 C43.250,39.398 43.250,32.480 43.250,32.480 C43.127,32.400 42.821,32.288 42.421,32.288 C42.421,32.288 36.295,32.288 36.295,32.288 C36.198,32.288 35.929,32.598 35.849,33.015 C35.849,33.015 35.859,33.041 35.859,33.041 C36.168,33.809 35.796,34.683 35.028,34.992 C34.259,35.303 33.386,34.930 33.076,34.162 C33.076,34.162 32.935,33.810 32.935,33.810 C32.863,33.631 32.826,33.442 32.826,33.250 C32.826,31.337 34.220,29.289 36.295,29.289 C36.295,29.289 42.421,29.289 42.421,29.289 C44.640,29.289 46.250,30.597 46.250,32.399 C46.250,32.399 46.250,39.398 46.250,39.398 C46.250,41.360 44.353,43.285 42.421,43.285 Z" id="path-5" class="cls-7" fill-rule="evenodd"/>
    <path d="M27.421,43.285 C27.421,43.285 20.421,43.285 20.421,43.285 C18.361,43.285 17.250,41.282 17.250,39.398 C17.250,39.398 17.250,32.399 17.250,32.399 C17.250,30.481 18.465,29.289 20.421,29.289 C20.421,29.289 27.855,29.289 27.855,29.289 C29.951,29.289 31.411,31.376 31.411,33.250 C31.411,33.326 31.405,33.401 31.394,33.476 C31.394,33.476 31.340,33.828 31.340,33.828 C31.215,34.647 30.444,35.204 29.631,35.083 C28.812,34.958 28.249,34.194 28.374,33.375 C28.374,33.375 28.407,33.162 28.407,33.162 C28.365,32.693 28.001,32.288 27.855,32.288 C27.855,32.288 20.421,32.288 20.421,32.288 C20.351,32.288 20.296,32.292 20.253,32.296 C20.251,32.325 20.250,32.359 20.250,32.399 C20.250,32.399 20.250,39.398 20.250,39.398 C20.250,39.813 20.394,40.163 20.492,40.286 C20.492,40.286 27.421,40.286 27.421,40.286 C27.705,40.269 28.249,39.688 28.250,39.398 C28.250,39.398 28.250,39.286 28.250,39.286 C28.250,38.458 28.921,37.787 29.750,37.787 C30.579,37.787 31.250,38.458 31.250,39.286 C31.250,39.286 31.250,39.398 31.250,39.398 C31.250,41.360 29.353,43.285 27.421,43.285 Z" id="path-6" class="cls-7" fill-rule="evenodd"/>
    <path d="M61.513,30.265 C60.684,30.265 60.013,29.593 60.013,28.765 C60.013,22.556 54.960,17.504 48.749,17.504 C42.539,17.504 37.486,22.556 37.486,28.765 C37.486,29.593 36.815,30.265 35.986,30.265 C35.158,30.265 34.486,29.593 34.486,28.765 C34.486,20.902 40.885,14.505 48.749,14.505 C56.614,14.505 63.013,20.902 63.013,28.765 C63.013,29.593 62.341,30.265 61.513,30.265 Z" id="path-7" class="cls-7" fill-rule="evenodd"/>
    <path d="M48.774,17.097 C44.401,17.097 40.711,11.109 40.711,7.347 C40.711,3.022 44.947,0.007 48.749,0.007 C52.552,0.007 56.789,3.022 56.789,7.347 C56.789,11.109 53.121,17.097 48.774,17.097 ZM48.749,3.006 C46.419,3.006 43.711,4.902 43.711,7.347 C43.711,9.913 46.540,14.098 48.774,14.098 C50.987,14.098 53.789,9.913 53.789,7.347 C53.789,4.902 51.080,3.006 48.749,3.006 Z" id="path-8" class="cls-7" fill-rule="evenodd"/>
    <path d="M14.300,17.097 C9.927,17.097 6.237,11.109 6.237,7.347 C6.237,3.022 10.474,0.007 14.276,0.007 C18.078,0.007 22.315,3.022 22.315,7.347 C22.315,11.109 18.647,17.097 14.300,17.097 ZM14.276,3.006 C11.946,3.006 9.237,4.902 9.237,7.347 C9.237,9.913 12.066,14.098 14.300,14.098 C16.514,14.098 19.315,9.913 19.315,7.347 C19.315,4.902 16.606,3.006 14.276,3.006 Z" id="path-9" class="cls-7" fill-rule="evenodd"/>
    <path d="M27.040,30.265 C26.211,30.265 25.539,29.593 25.539,28.765 C25.539,22.556 20.487,17.504 14.276,17.504 C8.065,17.504 3.013,22.556 3.013,28.765 C3.013,29.593 2.341,30.265 1.513,30.265 C0.684,30.265 0.013,29.593 0.013,28.765 C0.013,20.902 6.411,14.505 14.276,14.505 C22.141,14.505 28.540,20.902 28.540,28.765 C28.540,29.593 27.868,30.265 27.040,30.265 Z" id="path-10" class="cls-7" fill-rule="evenodd"/>
    <path d="M42.421,43.285 C42.421,43.285 36.421,43.285 36.421,43.285 C34.361,43.285 33.250,41.282 33.250,39.398 C33.250,39.398 33.250,39.286 33.250,39.286 C33.250,38.458 33.921,37.787 34.750,37.787 C35.579,37.787 36.250,38.458 36.250,39.286 C36.250,39.286 36.250,39.398 36.250,39.398 C36.250,39.813 36.393,40.163 36.492,40.286 C36.492,40.286 42.421,40.286 42.421,40.286 C42.705,40.269 43.249,39.688 43.250,39.398 C43.250,39.398 43.250,32.480 43.250,32.480 C43.127,32.400 42.821,32.288 42.421,32.288 C42.421,32.288 36.295,32.288 36.295,32.288 C36.198,32.288 35.929,32.598 35.849,33.015 C35.849,33.015 35.859,33.041 35.859,33.041 C36.168,33.809 35.796,34.683 35.028,34.992 C34.259,35.303 33.386,34.930 33.076,34.162 C33.076,34.162 32.935,33.810 32.935,33.810 C32.863,33.631 32.826,33.442 32.826,33.250 C32.826,31.337 34.220,29.289 36.295,29.289 C36.295,29.289 42.421,29.289 42.421,29.289 C44.640,29.289 46.250,30.597 46.250,32.399 C46.250,32.399 46.250,39.398 46.250,39.398 C46.250,41.360 44.353,43.285 42.421,43.285 Z" id="path-11" class="cls-7" fill-rule="evenodd"/>
    <path d="M27.421,43.285 C27.421,43.285 20.421,43.285 20.421,43.285 C18.361,43.285 17.250,41.282 17.250,39.398 C17.250,39.398 17.250,32.399 17.250,32.399 C17.250,30.481 18.465,29.289 20.421,29.289 C20.421,29.289 27.855,29.289 27.855,29.289 C29.951,29.289 31.411,31.376 31.411,33.250 C31.411,33.326 31.405,33.401 31.394,33.476 C31.394,33.476 31.340,33.828 31.340,33.828 C31.215,34.647 30.444,35.204 29.631,35.083 C28.812,34.958 28.249,34.194 28.374,33.375 C28.374,33.375 28.407,33.162 28.407,33.162 C28.365,32.693 28.001,32.288 27.855,32.288 C27.855,32.288 20.421,32.288 20.421,32.288 C20.351,32.288 20.296,32.292 20.253,32.296 C20.251,32.325 20.250,32.359 20.250,32.399 C20.250,32.399 20.250,39.398 20.250,39.398 C20.250,39.813 20.394,40.163 20.492,40.286 C20.492,40.286 27.421,40.286 27.421,40.286 C27.705,40.269 28.249,39.688 28.250,39.398 C28.250,39.398 28.250,39.286 28.250,39.286 C28.250,38.458 28.921,37.787 29.750,37.787 C30.579,37.787 31.250,38.458 31.250,39.286 C31.250,39.286 31.250,39.398 31.250,39.398 C31.250,41.360 29.353,43.285 27.421,43.285 Z" id="path-12" class="cls-7" fill-rule="evenodd"/>
    <path d="M35.250,36.287 C35.250,36.287 27.250,36.287 27.250,36.287 C26.421,36.287 25.750,35.615 25.750,34.787 C25.750,33.959 26.421,33.288 27.250,33.288 C27.250,33.288 35.250,33.288 35.250,33.288 C36.079,33.288 36.750,33.959 36.750,34.787 C36.750,35.615 36.079,36.287 35.250,36.287 Z" id="path-13" class="cls-7" fill-rule="evenodd"/>
  </g>
</svg>
